<svg width="56" height="36" viewBox="0 0 56 36" fill="none" xmlns="http://www.w3.org/2000/svg">
<path d="M55.1429 25.2705C54.6097 24.7715 53.8685 24.5059 53.1566 24.542C51.514 24.6309 48.4662 24.5879 46.4545 23.3516C44.9301 22.4023 42.3324 21.0371 39.3246 19.4561C35.7728 17.5898 31.7484 15.4746 28.6918 13.6152C24.7885 11.2422 24.3978 6.29492 24.4115 4.27832C24.4229 0.998774 14.8828 0.905873 13.7953 0.905273C11.517 0.905273 4.08143 1.14844 4.08143 4.27148C4.3869 9.02759 4.09654 12.7937 3.28455 14.333C0.383538 19.6152 -0.938582 25.8967 0.736878 29.915C1.89394 33.0303 4.94081 35.0947 8.27382 35.0947C9.90883 35.0549 11.4852 34.7709 13.3471 34.5C17.3422 33.8887 22.3119 33.126 27.558 34.0742C34.9351 35.4213 41.4804 33.9781 45.8646 33.9363C51.7445 34.6723 55.9787 32.8846 55.9976 27.208C55.9867 26.4639 55.683 25.7754 55.1429 25.2705ZM23.4213 21.8594C23.4256 21.073 24.4999 21.072 24.5043 21.8594C24.4996 22.6454 23.4256 22.6443 23.4213 21.8594ZM24.9185 19.4521C23.3877 18.7746 21.5865 19.9213 21.4487 21.5821C20.8847 21.8032 20.3014 21.9792 19.699 22.1127C18.7271 20.3367 15.9696 20.5243 15.2222 22.3971C14.4718 22.3589 13.7183 22.2854 12.9707 22.1719C12.3302 20.9151 10.528 20.4453 9.37168 21.2958C7.70855 20.6818 5.90746 19.6599 4.98089 17.9959C8.4185 19.1305 12.3293 19.5992 16.0482 19.3135C19.839 19.0323 23.5968 17.9846 26.8506 16.3404C26.4941 17.5128 25.8463 18.5646 24.9185 19.4521ZM18.0772 23.4618C18.0708 24.248 16.9986 24.2451 16.9945 23.4599C17.0212 22.662 18.0439 22.6769 18.0772 23.4618ZM10.3667 23.0798C10.6742 22.6407 11.3353 22.9227 11.3177 23.46C11.2197 24.5728 9.78704 23.9396 10.3667 23.0798ZM26.3498 14.3608C20.0252 17.7749 11.4722 18.351 4.77538 15.8052C6.09959 13.5369 6.25114 10.1282 6.18384 6.56005C8.5606 7.52624 12.2936 7.63769 13.7953 7.63769C14.5755 7.63769 19.6937 7.58215 22.5267 6.34423C22.8006 8.75939 23.6961 12.0627 26.3498 14.3608ZM13.7953 2.90527C18.5707 2.90527 21.475 3.72949 22.267 4.27148C21.475 4.81347 18.5707 5.63769 13.7953 5.63769C8.89977 5.63769 6.58727 4.75488 6.12926 4.27148C6.58727 3.78808 8.89977 2.90527 13.7953 2.90527ZM52.7064 30.7998C51.431 31.9531 49.2123 32.3389 46.1214 31.9531C45.4271 31.8613 44.7259 31.8604 44.0297 31.9541C41.1517 32.3564 33.8255 33.1787 27.9144 32.1055C20.4864 30.7914 14.9533 32.4806 8.72693 33.0782C1.37681 33.1159 0.889658 25.2528 3.32634 19.1166C4.28796 20.7599 5.95574 22.0755 8.27978 23.0046C8.2539 23.1531 8.23474 23.304 8.23474 23.46C8.23474 24.8945 9.37536 26.0615 10.7767 26.0615C11.9182 26.0615 12.8747 25.2821 13.1944 24.2196C13.8561 24.3057 14.5138 24.3656 15.1722 24.398C15.5415 25.369 16.459 26.0615 17.5365 26.0615C18.7135 26.0615 19.6966 25.2342 19.9842 24.1207C20.6857 23.9736 21.371 23.7787 22.0313 23.5294C22.498 24.0935 23.1862 24.4599 23.9632 24.4599C25.7342 24.5015 27.013 22.5163 26.3152 20.8837C27.7021 19.5544 28.5979 17.9321 28.9704 16.1072C31.8568 17.7903 35.3024 19.6018 38.3939 21.2265C41.3675 22.79 43.9359 24.1396 45.4027 25.0527C47.8802 26.5732 51.3871 26.6318 53.2592 26.54C54.7945 26.5235 53.7244 30.0886 52.7064 30.7998Z" fill="white"/>
</svg>
