<svg width="90" height="17" viewBox="0 0 90 17" fill="none" xmlns="http://www.w3.org/2000/svg">
<path d="M89.5238 9.469C89.5238 6.114 76.1488 4.161 62.2578 3.829C62.4298 3.523 62.5108 3.219 62.4708 2.917C62.1528 0.506 55.2558 0 49.5268 0C43.9788 0 37.3988 0.480999 30.4968 1.391C15.3568 3.387 -0.473174 7.486 0.0108256 11.151C0.124826 12.018 1.09783 12.635 2.55283 13.075C2.55383 12.813 2.60583 12.566 2.68283 12.33C1.40683 11.939 0.809825 11.482 0.752825 11.054C0.447825 8.737 12.6278 4.504 30.5938 2.135C37.4638 1.23 44.0108 0.750999 49.5258 0.750999C58.3108 0.750999 61.5878 1.971 61.7258 3.016C61.7578 3.262 61.6418 3.53 61.4028 3.813C60.2748 3.792 59.1448 3.779 58.0208 3.779C42.7498 3.779 26.5208 5.773 26.5208 9.469C26.5208 10.506 27.7998 11.409 29.9768 12.172C26.5528 12.588 23.2288 12.895 20.0928 13.084C20.0998 13.164 20.1168 13.241 20.1168 13.322C20.1168 13.499 20.0968 13.671 20.0648 13.838C23.7478 13.616 27.6858 13.237 31.7418 12.708C36.4238 13.959 43.7228 14.747 51.4148 15.035C51.3248 14.8 51.2728 14.548 51.2618 14.284C44.0258 14.01 38.0128 13.31 33.8168 12.425C46.1288 10.671 58.4348 7.6 61.6608 4.565C77.8108 4.884 88.7738 7.292 88.7738 9.469C88.7738 11.665 77.6178 14.098 61.2298 14.382C61.2078 14.646 61.1538 14.901 61.0538 15.134C75.3658 14.889 89.5238 12.922 89.5238 9.469ZM31.8868 11.934C31.8548 11.938 31.8248 11.942 31.7928 11.946C28.8928 11.174 27.2718 10.304 27.2718 9.469C27.2718 7.132 39.9008 4.529 58.0218 4.529C58.8768 4.529 59.7158 4.537 60.5468 4.548C57.1008 6.901 46.3788 10.024 31.8868 11.934Z" fill="white"/>
<path d="M61.25 14.1761V14.0471C61.25 12.7021 60.16 11.6121 58.816 11.6121H53.685C52.34 11.6121 51.25 12.7021 51.25 14.0461V14.1771C51.25 14.2141 51.259 14.2481 51.261 14.2851C51.273 14.5491 51.324 14.8011 51.414 15.0361C51.762 15.9561 52.643 16.6121 53.684 16.6121H58.815C59.821 16.6121 60.682 16.0031 61.054 15.1341C61.154 14.9011 61.207 14.6461 61.23 14.3821C61.235 14.3131 61.25 14.2471 61.25 14.1761Z" fill="white"/>
<path d="M7.4787 13.1211C7.4757 13.3831 7.4237 13.6301 7.3457 13.8661C7.7737 13.9011 8.2077 13.9311 8.6477 13.9571C8.6597 13.6941 8.7117 13.4421 8.8077 13.2111C8.3427 13.1841 7.8977 13.1551 7.4787 13.1211Z" fill="white"/>
<path d="M14.7285 13.3C14.1285 13.311 13.5335 13.319 12.9565 13.319C12.9505 13.319 12.9455 13.319 12.9395 13.319C13.0225 13.552 13.0765 13.8 13.0765 14.062C13.0765 14.064 13.0765 14.0661 13.0765 14.0681C13.6525 14.0671 14.2415 14.06 14.8385 14.049C14.7735 13.817 14.7275 13.575 14.7275 13.322C14.7255 13.315 14.7285 13.308 14.7285 13.3Z" fill="white"/>
<path d="M7.48273 13.092C7.48273 11.731 6.37873 10.627 5.01773 10.627C3.92373 10.627 3.00673 11.344 2.68473 12.33C2.60773 12.566 2.55574 12.813 2.55474 13.075C2.55474 13.081 2.55273 13.086 2.55273 13.092C2.55273 14.453 3.65673 15.557 5.01773 15.557C6.10673 15.557 7.02073 14.846 7.34674 13.866C7.42574 13.63 7.47673 13.383 7.47973 13.121C7.48073 13.111 7.48273 13.102 7.48273 13.092Z" fill="white"/>
<path d="M12.9387 13.319C12.6317 12.461 11.8197 11.842 10.8557 11.842C9.93172 11.842 9.14172 12.407 8.80772 13.21C8.71172 13.441 8.66072 13.693 8.64772 13.956C8.64572 13.992 8.63672 14.025 8.63672 14.061C8.63672 15.287 9.62972 16.28 10.8557 16.28C12.0797 16.28 13.0717 15.29 13.0747 14.067C13.0747 14.065 13.0747 14.063 13.0747 14.061C13.0747 13.8 13.0217 13.552 12.9387 13.319Z" fill="white"/>
<path d="M20.0936 13.0849C19.9706 11.7099 18.8286 10.6279 17.4216 10.6279C15.9406 10.6279 14.7406 11.8229 14.7286 13.3009C14.7286 13.3089 14.7266 13.3159 14.7266 13.3229C14.7266 13.5759 14.7726 13.8169 14.8376 14.0499C15.1566 15.1839 16.1866 16.0199 17.4216 16.0199C18.7336 16.0199 19.8256 15.0819 20.0666 13.8389C20.0986 13.6719 20.1186 13.4999 20.1186 13.3229C20.1176 13.2419 20.1006 13.1649 20.0936 13.0849Z" fill="white"/>
</svg>
