<svg width="63" height="59" viewBox="0 0 63 59" fill="none" xmlns="http://www.w3.org/2000/svg">
<path d="M62.7895 25.1636C62.7104 20.3241 58.7554 16.4102 53.8975 16.4102H35.5742C30.7172 16.4102 26.7622 20.3241 26.6832 25.1636C26.6825 25.1764 26.6758 25.1872 26.6758 25.2002C26.6758 25.2079 26.68 25.2144 26.6802 25.2221C26.6799 25.2516 26.6758 25.28 26.6758 25.3096V28.9023C26.6758 29.9004 27.4873 30.7119 28.4854 30.7119H40.4619V49.4502H34.2432C32.6523 49.4502 31.3584 50.7451 31.3584 52.3359C31.3584 53.9316 32.6523 55.2305 34.2432 55.2305H40.5356C40.894 57.2438 42.636 58.75 44.7402 58.75C46.8379 58.75 48.5773 57.2271 48.9339 55.2305H55.2285C56.8193 55.2305 58.1133 53.9316 58.1133 52.3359C58.1133 50.7451 56.8193 49.4502 55.2285 49.4502H49.0098V30.7119H60.9873C61.9854 30.7119 62.7969 29.9004 62.7969 28.9023V25.3096C62.7969 25.28 62.7927 25.2516 62.7924 25.2221C62.7927 25.2144 62.7969 25.208 62.7969 25.2002C62.7969 25.1872 62.7902 25.1764 62.7895 25.1636ZM40.4619 53.7305H34.2432C33.4795 53.7305 32.8584 53.1045 32.8584 52.3359C32.8584 51.5723 33.4795 50.9502 34.2432 50.9502H40.4619V53.7305ZM36.3242 17.9102H53.1475V19.4287C53.1475 20.1836 52.5332 20.7979 51.7783 20.7979H37.6943C36.9385 20.7979 36.3242 20.1836 36.3242 19.4287V17.9102ZM34.8242 17.9482V19.4287C34.8242 21.0107 36.1113 22.2979 37.6943 22.2979H51.7783C53.3604 22.2979 54.6475 21.0107 54.6475 19.4287V17.9482C58.0931 18.2965 60.8424 21.0198 61.2416 24.4502H28.231C28.6303 21.0198 31.3794 18.2965 34.8242 17.9482ZM47.5098 54.4805C47.5098 56.0078 46.2676 57.25 44.7402 57.25C43.1704 57.25 41.9619 55.971 41.9619 54.4805C41.9619 45.9551 41.9619 39.6956 41.9619 30.7148H47.5098C47.5098 39.684 47.5098 45.9384 47.5098 54.4805ZM55.2285 50.9502C55.9922 50.9502 56.6133 51.5723 56.6133 52.3359C56.6133 53.1045 55.9922 53.7305 55.2285 53.7305H49.0098V50.9502H55.2285ZM61.2969 28.9023C61.2969 29.0732 61.1582 29.2119 60.9873 29.2119H28.4854C28.3145 29.2119 28.1758 29.0732 28.1758 28.9023V25.9502H61.2969L61.2969 28.9023Z" fill="white"/>
<path d="M0.203135 12.7412C0.203135 13.7393 1.01466 14.5508 2.01271 14.5508H13.9912V33.2891H7.7627C6.17676 33.2891 4.88673 34.584 4.88673 36.1748C4.88673 37.7705 6.17676 39.0693 7.7627 39.0693H14.065C14.4224 41.0777 16.1577 42.5879 18.2695 42.5879C20.3671 42.5879 22.1066 41.0651 22.4632 39.0693H28.7568C30.3477 39.0693 31.6426 37.7705 31.6426 36.1748C31.6426 34.584 30.3477 33.2891 28.7568 33.2891H22.5391V14.5508H34.5147C35.5127 14.5508 36.3242 13.7393 36.3242 12.7412V9.14844C36.3242 9.1189 36.3201 9.09046 36.3198 9.06098C36.32 9.05329 36.3242 9.04682 36.3242 9.03907C36.3242 9.02607 36.3175 9.01527 36.3168 9.00245C36.2378 4.16394 32.2828 0.25 27.4258 0.25H9.10254C4.24457 0.25 0.289555 4.16394 0.210515 9.00244C0.209845 9.01526 0.203125 9.02606 0.203125 9.03906C0.203125 9.04681 0.207335 9.05328 0.207585 9.06097C0.207275 9.09045 0.203125 9.11889 0.203125 9.14843L0.203135 12.7412ZM13.9912 37.5693H7.7627C7.00391 37.5693 6.38672 36.9434 6.38672 36.1748C6.38672 35.4111 7.00391 34.7891 7.7627 34.7891H13.9912L13.9912 37.5693ZM21.0391 38.3193C21.0391 39.8457 19.7969 41.0879 18.2695 41.0879C16.7027 41.0879 15.4912 39.8141 15.4912 38.3193C15.4912 29.794 15.4912 23.5344 15.4912 14.5537H21.0391C21.0391 23.5228 21.0391 29.7772 21.0391 38.3193ZM28.7568 34.7891C29.5205 34.7891 30.1426 35.4111 30.1426 36.1748C30.1426 36.9434 29.5205 37.5693 28.7568 37.5693H22.5391V34.7891H28.7568ZM9.85254 1.75H26.6758V3.26758C26.6758 4.02246 26.0615 4.63672 25.3057 4.63672H11.2217C10.4668 4.63672 9.85254 4.02246 9.85254 3.26758V1.75ZM8.35254 1.78809V3.26758C8.35254 4.84961 9.63965 6.13672 11.2217 6.13672H25.3057C26.8887 6.13672 28.1758 4.84961 28.1758 3.26758V1.78809C31.6205 2.13636 34.3696 4.8595 34.769 8.28907H1.75836C2.15771 4.8595 4.90692 2.13635 8.35254 1.78809ZM1.70314 9.78906H34.8242V12.7412C34.8242 12.9121 34.6856 13.0508 34.5147 13.0508H2.01271C1.84181 13.0508 1.70314 12.9121 1.70314 12.7412V9.78906Z" fill="white"/>
</svg>
