<svg width="64" height="62" viewBox="0 0 64 62" fill="none" xmlns="http://www.w3.org/2000/svg">
<path d="M24.0104 28.53C24.0104 28.53 24.5304 26.89 37.6904 30.31C36.9304 30.02 24.0604 25.15 25.5704 22.29C25.5704 22.29 26.7504 17.4 34.9204 13.27C32.9004 14.24 23.4404 18.7 22.2704 17.01C22.2704 17.01 19.9104 14.08 19.8404 7.48997C19.9404 7.48997 20.0704 7.40997 20.2104 7.25997C20.3104 7.15997 20.3604 7.02997 20.3504 6.88997C20.3504 6.75997 20.2804 6.62997 20.1704 6.53997C20.0204 6.41997 19.8104 6.39997 19.6404 6.47997C19.4704 6.55997 19.3704 6.70997 19.3804 6.88997C19.3804 7.00997 19.4104 7.12997 19.4604 7.22997C19.4504 7.24997 19.4404 7.24997 19.4204 7.25997C19.2004 7.34997 18.9304 7.24997 18.6704 6.98997C18.6304 6.92997 18.6104 6.64997 18.8004 5.36997C18.8704 4.95997 18.9404 4.50997 19.0104 4.09997C19.1904 3.02997 19.3004 2.36997 19.2704 2.17997L19.2504 2.04997C19.1904 1.67997 19.1304 1.25997 18.7704 1.00997C18.4204 0.779973 17.8704 0.759974 17.0804 0.949974C16.8004 1.00997 16.5904 1.16997 16.4404 1.41997C15.7704 2.52997 16.4604 5.20997 16.9204 6.97997C17.0804 7.57997 17.2004 8.05997 17.2204 8.29997C17.3404 9.38997 16.7704 11.16 16.7704 11.18L16.9504 11.24C16.9804 11.17 17.5404 9.41997 17.4204 8.27997C17.3904 8.01997 17.2704 7.53997 17.1104 6.92997C16.6904 5.28997 15.9804 2.55997 16.6104 1.52997C16.7304 1.31997 16.9004 1.18997 17.1204 1.13997C17.8604 0.969972 18.3604 0.979973 18.6604 1.17997C18.9504 1.36997 19.0004 1.72997 19.0504 2.07997L19.0704 2.21997C19.1004 2.37997 18.9604 3.23997 18.8204 4.05997C18.7504 4.47997 18.6704 4.91997 18.6104 5.33997C18.3804 6.82997 18.4404 7.03997 18.5204 7.11997C18.9704 7.56997 19.3204 7.51997 19.4904 7.44997C19.5204 7.43997 19.5504 7.41997 19.5804 7.39997H19.5904C19.5904 7.39997 19.6704 7.46997 19.7204 7.47997C19.3704 10.3 18.2104 18.12 16.3704 18.12C14.1704 18.12 5.41039 12.62 4.92039 12.32C5.38039 12.79 12.9604 20.64 12.3704 22.81C12.3704 22.81 12.8904 25.62 0.900391 27.08C0.900391 27.08 13.2904 26.49 14.2804 28.74C14.2804 28.74 15.5004 30.79 8.23039 40.32C8.78039 39.71 16.8904 30.68 18.8004 31.48C18.8004 31.48 22.2604 31.84 26.2604 40.34C26.0504 39.82 21.7704 29.49 24.0104 28.53ZM19.9604 6.63997C19.9604 6.63997 20.0204 6.66997 20.0404 6.68997H20.0504C20.1104 6.74997 20.1504 6.81997 20.1604 6.89997C20.1604 6.98997 20.1304 7.05997 20.0704 7.11997C19.9604 7.23997 19.8704 7.28997 19.8304 7.28997C19.8104 7.29997 19.8004 7.29997 19.7904 7.29997C19.7804 7.29997 19.7604 7.28997 19.7504 7.26997V7.24997C19.7504 7.24997 19.8104 7.16997 19.8304 7.11997C19.9104 6.98997 19.9504 6.81997 19.9604 6.63997ZM19.6204 7.08997C19.6204 7.08997 19.5704 6.96997 19.5704 6.88997C19.5704 6.78997 19.6304 6.69997 19.7204 6.65997C19.7304 6.64997 19.7504 6.64997 19.7604 6.64997C19.7604 6.81997 19.7104 6.97997 19.6204 7.08997ZM19.7104 26.45C19.4904 26.61 19.1904 26.61 18.9704 26.44C18.3404 25.95 17.0704 24.78 17.0604 23.14C17.0504 21.96 18.4304 22.63 19.0404 22.97C19.2104 23.07 19.4204 23.05 19.5704 22.93C21.5804 21.29 21.5804 23.49 21.5804 23.49C21.0504 25.25 20.2104 26.09 19.7104 26.45Z" fill="white"/>
<path d="M49.3695 50.1901C49.3695 50.1901 49.8895 48.5501 63.0595 51.9701C62.2995 51.6801 49.4195 46.8101 50.9395 43.9501C50.9395 43.9501 52.1095 39.0601 60.2795 34.9301C58.2595 35.9001 48.8095 40.3601 47.6295 38.6701C47.6295 38.6701 45.2695 35.7401 45.1995 29.1701C45.2995 29.1501 45.4195 29.0701 45.5395 28.9401C45.6395 28.8401 45.6895 28.7101 45.6795 28.5701C45.6695 28.4301 45.6095 28.3101 45.4995 28.2201C45.3495 28.1001 45.1395 28.0801 44.9695 28.1601C44.7995 28.2401 44.7095 28.3901 44.7095 28.5701C44.7095 28.6701 44.7295 28.7801 44.7795 28.8601C44.5795 28.9301 44.3195 28.8301 44.0595 28.5701C44.0295 28.5201 43.9995 28.2301 44.1995 26.9501C44.2595 26.5501 44.3395 26.1101 44.4095 25.7001C44.5895 24.6201 44.6895 23.9601 44.6595 23.7701L44.6395 23.6301C44.5895 23.2601 44.5195 22.8401 44.1595 22.6001C43.8195 22.3701 43.2695 22.3501 42.4695 22.5401C42.1995 22.6001 41.9895 22.7601 41.8295 23.0101C41.1695 24.1101 41.8595 26.7901 42.3195 28.5601C42.4695 29.1701 42.5995 29.6401 42.6195 29.8901C42.7295 30.9801 42.1695 32.7501 42.1595 32.7701L42.3495 32.8301C42.3695 32.7501 42.9295 31.0001 42.8195 29.8701C42.7895 29.6101 42.6695 29.1301 42.5095 28.5201C42.0895 26.8801 41.3795 24.1401 41.9995 23.1101C42.1295 22.9101 42.2995 22.7801 42.5195 22.7301C43.2595 22.5501 43.7595 22.5601 44.0495 22.7601C44.3395 22.9601 44.3995 23.3201 44.4495 23.6601L44.4695 23.8001C44.4995 23.9701 44.3495 24.8301 44.2095 25.6701C44.1395 26.0801 44.0695 26.5201 44.0095 26.9201C43.7795 28.4201 43.8295 28.6201 43.9195 28.7101C44.3495 29.1501 44.7095 29.1001 44.8795 29.0301C44.9195 29.0901 44.9895 29.1401 45.0595 29.1601H45.0795C44.7195 32.0001 43.5795 39.7801 41.7295 39.7801C39.5295 39.7801 30.7695 34.2801 30.2795 33.9801C30.7395 34.4501 38.3195 42.2901 37.7295 44.4701C37.7295 44.4701 38.2495 47.2801 26.2695 48.7401C26.2695 48.7401 38.6495 48.1501 39.6395 50.4001C39.6395 50.4001 40.8595 52.4501 33.5895 61.9801C34.1395 61.3701 42.2595 52.3401 44.1595 53.1401C44.1595 53.1401 47.6195 53.5001 51.6195 62.0001C51.4095 61.4801 47.1295 51.1501 49.3695 50.1901ZM44.8995 28.5701C44.8995 28.4701 44.9595 28.3801 45.0495 28.3301C45.0795 28.3301 45.1095 28.3101 45.1495 28.3101C45.1295 28.5001 45.0495 28.6701 44.9395 28.7601C44.9095 28.7101 44.8995 28.6401 44.8995 28.5701ZM45.0495 28.9301C45.0495 28.9301 45.0995 28.8901 45.1095 28.8701C45.1495 28.8401 45.1695 28.8101 45.1895 28.7701C45.2695 28.6501 45.3295 28.5101 45.3495 28.3501C45.3595 28.3601 45.3695 28.3601 45.3795 28.3701C45.4395 28.4301 45.4795 28.5001 45.4895 28.5801C45.4895 28.6601 45.4595 28.7401 45.3995 28.8001C45.3095 28.8901 45.2395 28.9401 45.1895 28.9601C45.1595 28.9801 45.1395 28.9801 45.1195 28.9801C45.1195 28.9801 45.1129 28.9767 45.0995 28.9701C45.0995 28.9701 45.0695 28.9501 45.0495 28.9301ZM45.0795 48.1101C44.8495 48.2701 44.5495 48.2701 44.3295 48.1001C43.6995 47.6101 42.4395 46.4401 42.4195 44.8001C42.4095 43.6201 43.7895 44.2901 44.3995 44.6301C44.5695 44.7301 44.7795 44.7101 44.9295 44.5901C46.9395 42.9501 46.9395 45.1501 46.9395 45.1501C46.4195 46.9001 45.5695 47.7501 45.0795 48.1101Z" fill="white"/>
</svg>
