<svg width="292" height="386" viewBox="0 0 292 386" fill="none" xmlns="http://www.w3.org/2000/svg">
<path d="M276.879 80.62C260.099 78.56 246.179 73.44 235.439 65.39C235.569 61.69 232.129 58.69 228.479 59.34C217.569 48.37 210.479 33.23 206.869 13.3C205.479 5.62004 198.829 0.0400391 191.069 0.0400391H100.149C92.3795 0.0400391 85.7295 5.62004 84.3495 13.3C80.7495 33.23 73.6595 48.36 62.7395 59.34C59.0895 58.7 55.6595 61.69 55.7795 65.39C45.0395 73.44 31.1195 78.56 14.3295 80.62C9.20949 81.25 4.81949 84.19 2.28949 88.68C-0.240514 93.16 -0.480518 98.42 1.62948 103.12C12.1295 126.51 31.3295 169.99 41.8895 198.35C57.0795 239.61 68.2495 294.46 126.119 306.71V334.19C113.249 335.59 94.6395 339.12 83.3295 348.07C77.9495 352.33 75.8795 364.25 75.0995 373.61H22.5095C19.1995 373.61 16.5095 376.3 16.5095 379.61C16.5095 382.92 19.1995 385.61 22.5095 385.61H268.689C276.489 385.5 276.649 373.75 268.689 373.61H216.099C215.309 364.24 213.249 352.33 207.869 348.07C196.559 339.12 177.949 335.59 165.089 334.19V306.71C222.969 294.45 234.129 239.61 249.319 198.35C259.869 170.02 279.069 126.52 289.579 103.11C294.149 93.67 287.329 81.59 276.869 80.61L276.879 80.62ZM223.609 99.88C229.969 102.13 226.149 111.57 219.999 108.81C214.679 106.25 217.979 98 223.609 99.88ZM96.1495 15.43C96.5095 13.46 98.1895 12.03 100.149 12.03H191.069C193.029 12.03 194.709 13.46 195.069 15.43C199.469 39.76 208.709 57.94 223.279 70.91C222.969 76.6 222.179 82.21 220.919 87.69C207.249 88.34 200.199 105.74 209.629 115.71C207.469 119.27 205.079 122.64 202.489 125.8C188.929 118.66 172.249 132.05 176.239 146.85C172.729 148.56 169.129 149.98 165.439 151.09C158.169 134.12 133.039 134.15 125.779 151.09C122.099 149.99 118.489 148.57 114.989 146.86C118.979 132.06 102.289 118.68 88.7395 125.81C86.1495 122.65 83.7695 119.27 81.5995 115.72C91.0295 105.75 83.9795 88.35 70.3095 87.7C69.0595 82.24 68.2695 76.63 67.9495 70.92C82.5195 57.95 91.7595 39.77 96.1595 15.44L96.1495 15.43ZM200.959 142.51C200.809 151.21 187.869 151.21 187.719 142.51C187.879 133.8 200.809 133.82 200.959 142.51ZM145.609 169.74C132.779 169.41 132.739 150.55 145.609 150.25C158.479 150.56 158.429 169.42 145.609 169.74ZM145.609 198.13L159.399 215.9L145.609 233.67L131.819 215.9L145.609 198.13ZM103.499 142.51C103.359 151.2 90.4095 151.22 90.2595 142.51C90.4095 133.82 103.339 133.8 103.499 142.51ZM67.5995 99.88C73.2295 97.99 76.5295 106.24 71.2095 108.81C65.0595 111.57 61.2395 102.14 67.5995 99.88ZM200.329 357.4C201.729 359.05 203.239 366 204.019 373.61H87.1995C87.9795 366 89.4895 359.05 90.8895 357.4C113.069 340.98 178.149 340.98 200.329 357.4ZM138.129 333.31V308.25C142.999 308.58 148.219 308.58 153.089 308.25V333.31C148.129 333.11 143.089 333.11 138.129 333.31ZM278.629 98.21C268.059 121.75 248.739 165.52 238.069 194.18C223.249 234.42 212.709 287.66 158.269 295.69C88.7495 305.39 69.4295 244.64 53.1395 194.18C42.4595 165.5 23.1395 121.74 12.5795 98.22C11.4395 95.12 13.2095 93.05 15.7895 92.54C31.6195 90.6 45.2995 86.14 56.6395 79.26C57.1395 83.28 57.8595 87.26 58.7895 91.18C45.5395 101.22 54.2395 123.1 70.8795 121.19C73.6495 125.84 76.7595 130.22 80.1795 134.29C71.3895 151.91 93.2695 169.41 108.529 157.04C113.539 159.59 118.739 161.61 124.089 163.07C125.299 171.61 131.489 178.56 139.609 180.89V187.52C137.129 188.36 124.069 206.71 122.109 208.84C118.909 212.99 118.909 218.8 122.119 222.97L136.489 241.48C138.689 244.33 142.009 245.96 145.609 245.96C149.199 245.96 152.529 244.33 154.729 241.49L169.099 222.97C172.329 218.81 172.329 212.99 169.099 208.82C167.069 206.61 154.189 188.45 151.609 187.52V180.89C159.729 178.55 165.909 171.6 167.129 163.07C172.469 161.6 177.679 159.58 182.689 157.03C197.959 169.4 219.829 151.89 211.039 134.28C214.449 130.21 217.559 125.83 220.339 121.18C236.989 123.09 245.679 101.2 232.429 91.17C233.359 87.25 234.079 83.27 234.579 79.25C245.919 86.12 259.599 90.59 275.419 92.53C278.019 93.02 279.759 95.14 278.639 98.21H278.629Z" fill="white"/>
</svg>
