<svg width="35" height="34" viewBox="0 0 35 34" fill="none" xmlns="http://www.w3.org/2000/svg">
<g clip-path="url(#clip0_3226_2071)">
<path d="M11.409 0.77736C11.2767 0.778405 11.1502 0.831811 11.0573 0.925887C10.9643 1.01996 10.9124 1.14704 10.9129 1.27931L10.8211 12.4414C10.7835 16.9897 9.51409 20.6692 10.0847 23.4961C10.0941 23.5637 10.1172 23.6287 10.1526 23.6871C10.188 23.7454 10.235 23.7959 10.2907 23.8354C10.3463 23.8749 10.4095 23.9026 10.4763 23.9168C10.543 23.931 10.612 23.9313 10.6789 23.9178C10.7458 23.9043 10.8093 23.8773 10.8653 23.8384C10.9214 23.7994 10.9689 23.7494 11.0049 23.6914C11.0409 23.6334 11.0647 23.5687 11.0747 23.5012C11.0847 23.4337 11.0808 23.3648 11.0633 23.2988C10.5898 20.9535 11.7821 17.172 11.8211 12.4512L11.9129 1.28908C11.9144 1.22211 11.9025 1.15551 11.8779 1.09323C11.8532 1.03095 11.8163 0.974265 11.7693 0.926535C11.7223 0.878806 11.6661 0.841006 11.6043 0.815381C11.5424 0.789755 11.476 0.776825 11.409 0.77736Z" fill="white"/>
<path d="M20.2364 22.5586C17.8659 22.5586 15.9395 24.4751 15.9395 26.8379C15.9386 26.9042 15.9508 26.97 15.9755 27.0315C16.0002 27.0929 16.0369 27.1489 16.0834 27.1961C16.1299 27.2433 16.1854 27.2808 16.2465 27.3063C16.3076 27.3319 16.3732 27.3451 16.4395 27.3451C16.5058 27.3451 16.5714 27.3319 16.6325 27.3063C16.6936 27.2808 16.7491 27.2433 16.7956 27.1961C16.8421 27.1489 16.8788 27.0929 16.9035 27.0315C16.9282 26.97 16.9404 26.9042 16.9395 26.8379C16.9395 25.0144 18.4 23.5586 20.2364 23.5586C20.3026 23.5596 20.3684 23.5473 20.4299 23.5226C20.4914 23.4979 20.5473 23.4612 20.5945 23.4147C20.6417 23.3682 20.6792 23.3128 20.7048 23.2516C20.7303 23.1905 20.7435 23.1249 20.7435 23.0586C20.7435 22.9924 20.7303 22.9268 20.7048 22.8657C20.6792 22.8045 20.6417 22.7491 20.5945 22.7026C20.5473 22.656 20.4914 22.6194 20.4299 22.5947C20.3684 22.5699 20.3026 22.5577 20.2364 22.5586Z" fill="white"/>
<path d="M16.4404 26.338L12.5244 26.3497C12.4582 26.349 12.3925 26.3616 12.3311 26.3865C12.2698 26.4115 12.214 26.4484 12.167 26.4951C12.12 26.5418 12.0828 26.5974 12.0575 26.6586C12.0322 26.7198 12.0193 26.7854 12.0195 26.8517C12.0198 26.9179 12.0332 26.9834 12.059 27.0444C12.0848 27.1054 12.1225 27.1607 12.1698 27.2071C12.2171 27.2534 12.2732 27.2899 12.3347 27.3143C12.3963 27.3388 12.4621 27.3508 12.5283 27.3497L16.4424 27.338C16.5086 27.3388 16.5744 27.3264 16.6358 27.3015C16.6973 27.2767 16.7531 27.2399 16.8002 27.1933C16.8473 27.1467 16.8847 27.0912 16.9101 27.03C16.9355 26.9688 16.9486 26.9032 16.9485 26.8369C16.9483 26.7707 16.935 26.7051 16.9093 26.644C16.8836 26.583 16.8461 26.5276 16.7988 26.4812C16.7515 26.4348 16.6955 26.3982 16.634 26.3736C16.5724 26.349 16.5067 26.3369 16.4404 26.338Z" fill="white"/>
<path d="M8.54033 22.5586C8.47407 22.5577 8.40829 22.5699 8.34681 22.5947C8.28532 22.6194 8.22936 22.656 8.18217 22.7026C8.13499 22.7491 8.09752 22.8045 8.07195 22.8657C8.04637 22.9268 8.0332 22.9924 8.0332 23.0586C8.0332 23.1249 8.04637 23.1905 8.07195 23.2516C8.09752 23.3128 8.13499 23.3682 8.18217 23.4147C8.22936 23.4612 8.28532 23.4979 8.34681 23.5226C8.40829 23.5473 8.47407 23.5596 8.54033 23.5586C10.3768 23.5586 11.8372 25.0144 11.8372 26.8379C11.8363 26.9042 11.8485 26.97 11.8732 27.0315C11.8979 27.0929 11.9346 27.1489 11.9811 27.1961C12.0276 27.2433 12.0831 27.2808 12.1442 27.3063C12.2053 27.3319 12.2709 27.3451 12.3372 27.3451C12.4035 27.3451 12.4691 27.3319 12.5302 27.3063C12.5913 27.2808 12.6468 27.2433 12.6933 27.1961C12.7398 27.1489 12.7765 27.0929 12.8012 27.0315C12.8259 26.97 12.8381 26.9042 12.8372 26.8379C12.8372 24.4751 10.9108 22.5586 8.54033 22.5586Z" fill="white"/>
<path d="M8.61724 16.6583C8.48697 16.6557 8.36083 16.7041 8.26568 16.7931C7.01273 17.9294 6.23442 19.7264 6.23442 21.7423C6.23349 21.8085 6.24573 21.8743 6.27044 21.9358C6.29514 21.9973 6.33182 22.0533 6.37835 22.1004C6.42487 22.1476 6.4803 22.1851 6.54143 22.2107C6.60256 22.2362 6.66816 22.2494 6.73443 22.2494C6.80069 22.2494 6.86629 22.2362 6.92742 22.2107C6.98855 22.1851 7.04398 22.1476 7.0905 22.1004C7.13703 22.0533 7.17371 21.9973 7.19841 21.9358C7.22312 21.8743 7.23536 21.8085 7.23442 21.7423C7.23442 19.9858 7.92351 18.453 8.93755 17.5333C9.01307 17.4667 9.06673 17.3789 9.0915 17.2813C9.11627 17.1837 9.11101 17.0809 9.0764 16.9863C9.04179 16.8918 8.97944 16.8099 8.89751 16.7514C8.81559 16.6928 8.7179 16.6604 8.61724 16.6583Z" fill="white"/>
<path d="M20.8986 17.4805C20.8323 17.4796 20.7665 17.4918 20.705 17.5165C20.6436 17.5412 20.5876 17.5779 20.5404 17.6244C20.4932 17.671 20.4558 17.7264 20.4302 17.7875C20.4046 17.8487 20.3914 17.9143 20.3914 17.9805C20.3914 18.0468 20.4046 18.1124 20.4302 18.1735C20.4558 18.2346 20.4932 18.2901 20.5404 18.3366C20.5876 18.3831 20.6436 18.4198 20.705 18.4445C20.7665 18.4692 20.8323 18.4815 20.8986 18.4805C24.1447 18.4805 26.7657 21.1021 26.7657 24.3497C26.7657 27.5973 24.1447 30.2188 20.8986 30.2188C18.5581 30.2188 16.5452 28.8535 15.6017 26.877C15.575 26.8153 15.5362 26.7596 15.4875 26.7132C15.4389 26.6669 15.3814 26.6308 15.3185 26.6072C15.2555 26.5835 15.1885 26.5728 15.1214 26.5757C15.0542 26.5786 14.9883 26.5949 14.9276 26.6238C14.867 26.6527 14.8127 26.6935 14.7682 26.7439C14.7236 26.7942 14.6897 26.853 14.6684 26.9167C14.6471 26.9805 14.6388 27.0479 14.6441 27.1149C14.6495 27.1819 14.6682 27.2471 14.6993 27.3067C15.8043 29.6215 18.1683 31.2188 20.8986 31.2188C24.6853 31.2188 27.7657 28.1375 27.7657 24.3497C27.7657 20.5618 24.6853 17.4805 20.8986 17.4805Z" fill="white"/>
<path d="M22.2383 30.5273C21.872 30.5273 21.6024 30.7708 21.4551 31.0195C21.3078 31.2683 21.2383 31.5579 21.2383 31.8711C21.2383 32.1843 21.3078 32.4739 21.4551 32.7227C21.6024 32.9714 21.872 33.2168 22.2383 33.2168C22.6045 33.2168 22.8742 32.9714 23.0215 32.7227C23.1688 32.4739 23.2383 32.1843 23.2383 31.8711C23.2383 31.5579 23.1688 31.2683 23.0215 31.0195C22.8742 30.7708 22.6045 30.5273 22.2383 30.5273Z" fill="white"/>
<path d="M25.3633 29.3086C24.997 29.3086 24.7274 29.552 24.5801 29.8008C24.4328 30.0495 24.3633 30.3392 24.3633 30.6523C24.3633 30.9655 24.4328 31.2551 24.5801 31.5039C24.7274 31.7527 24.997 31.998 25.3633 31.998C25.7295 31.998 25.9992 31.7527 26.1465 31.5039C26.2938 31.2551 26.3633 30.9655 26.3633 30.6523C26.3633 30.3392 26.2938 30.0495 26.1465 29.8008C25.9992 29.552 25.7295 29.3086 25.3633 29.3086Z" fill="white"/>
<path d="M18.6367 30.5273C18.2705 30.5273 18.0008 30.7708 17.8535 31.0195C17.7062 31.2683 17.6367 31.5579 17.6367 31.8711C17.6367 32.1843 17.7062 32.4739 17.8535 32.7227C18.0008 32.9714 18.2705 33.2168 18.6367 33.2168C19.003 33.2168 19.2726 32.9714 19.4199 32.7227C19.5672 32.4739 19.6367 32.1843 19.6367 31.8711C19.6367 31.5579 19.5672 31.2683 19.4199 31.0195C19.2726 30.7708 19.003 30.5273 18.6367 30.5273Z" fill="white"/>
<path d="M20.1464 16.6583C20.0469 16.6629 19.951 16.6973 19.8712 16.7568C19.7913 16.8163 19.731 16.8984 19.6981 16.9924C19.6651 17.0864 19.661 17.1881 19.6862 17.2845C19.7115 17.3808 19.7649 17.4675 19.8398 17.5333C20.0053 17.6834 20.1616 17.8503 20.3085 18.0313C21.0611 18.9586 21.5429 20.2725 21.5429 21.7422C21.5419 21.8085 21.5542 21.8743 21.5789 21.9358C21.6036 21.9972 21.6403 22.0532 21.6868 22.1004C21.7333 22.1476 21.7888 22.185 21.8499 22.2106C21.911 22.2362 21.9766 22.2494 22.0429 22.2494C22.1091 22.2494 22.1747 22.2362 22.2359 22.2106C22.297 22.185 22.3524 22.1476 22.399 22.1004C22.4455 22.0532 22.4822 21.9972 22.5069 21.9358C22.5316 21.8743 22.5438 21.8085 22.5429 21.7422C22.5429 20.0555 21.9969 18.5231 21.0858 17.4004C20.9081 17.1814 20.7162 16.9786 20.5116 16.793C20.4629 16.7473 20.4054 16.7118 20.3427 16.6886C20.2799 16.6655 20.2132 16.6552 20.1464 16.6583Z" fill="white"/>
</g>
<defs>
<clipPath id="clip0_3226_2071">
<rect width="22" height="34" fill="white" transform="translate(6)"/>
</clipPath>
</defs>
</svg>
