<svg width="32769" height="30580" viewBox="0 0 32769 30580" fill="none" xmlns="http://www.w3.org/2000/svg">
<path d="M16633.7 14477.5C17285.9 14477.5 17876.3 14741.8 18303.8 15169.3C18731.2 15596.7 18995.5 16187.2 18995.5 16839.3C18995.5 17491.5 18731.2 18082 18303.8 18509.4C18140.4 18672.8 17953.2 18812.3 17747.9 18922.3C17806.8 19000 17857.8 19083.8 17899.7 19172.6C17986.7 19356.8 18035.3 19561.8 18035.3 19777.1C18035.3 20049.6 17957.5 20305 17822.7 20522.4C17746.9 20644.7 17653.1 20754.6 17545 20848.3C17947.1 21171.5 18354.6 21669.9 18731.4 22257.6C19472.2 23413.2 20120.3 24932.9 20362 26099.6C20416.1 26360.8 20442 26616.7 20442 26865C20442 27751.6 20121.8 28570.5 19584.3 29212.8C19048.4 29853 18295.6 30317.3 17428.4 30496.9C17168.2 30550.8 16900.3 30579.2 16627.5 30579.2C16359.2 30579.2 16095.1 30551.5 15838 30498.9C14970.7 30321.6 14215.1 29857.8 13676 29217.1C13135.1 28574.2 12812 27754.4 12812 26867.4C12812 26623.7 12837.1 26372.5 12889.6 26115.8C13126.6 24956.8 13771.1 23447.2 14510.9 22290.8C14890.4 21697.7 15301.6 21192.8 15707.4 20863.1C15586.2 20761.6 15482.4 20640.3 15400.9 20504.2C15273.1 20290.8 15199.5 20042 15199.5 19777.1C15199.5 19574.7 15242.4 19381.6 15319.5 19206.4C15366.1 19100.4 15425.8 19000.9 15496.6 18909.9C15300.3 18801.8 15120.9 18666.7 14963.6 18509.4C14536.2 18082 14271.8 17491.5 14271.8 16839.3C14271.8 16187.2 14536.2 15596.7 14963.6 15169.3C15391 14741.8 15981.5 14477.5 16633.7 14477.5ZM13580.4 14589.6L13936.7 14250.1L14276.2 14606.3L13919.9 14945.8L13580.4 14589.6ZM0.171806 339.992L356.41 0.485382L695.916 356.724L339.678 696.23L0.171806 339.992ZM1358.2 1764.96L1714.44 1425.45L2053.94 1781.69L1697.7 2121.19L1358.2 1764.96ZM2716.22 3189.92L3072.46 2850.41L3411.97 3206.65L3055.73 3546.16L2716.22 3189.92ZM4074.25 4614.88L4430.49 4275.37L4769.99 4631.61L4413.75 4971.12L4074.25 4614.88ZM5432.27 6039.84L5788.51 5700.33L6128.02 6056.57L5771.78 6396.08L5432.27 6039.84ZM6790.3 7464.8L7146.54 7125.29L7486.04 7481.53L7129.81 7821.04L6790.3 7464.8ZM8148.32 8889.76L8504.56 8550.25L8844.07 8906.49L8487.83 9245.99L8148.32 8889.76ZM9506.35 10314.7L9862.59 9975.21L10202.1 10331.4L9845.86 10671L9506.35 10314.7ZM10864.4 11739.7L11220.6 11400.2L11560.1 11756.4L11203.9 12095.9L10864.4 11739.7ZM12222.4 13164.6L12578.6 12825.1L12918.1 13181.4L12561.9 13520.9L12222.4 13164.6ZM18831.7 14250.1L19187.9 14589.6L18848.4 14945.8L18492.2 14606.3L18831.7 14250.1ZM32411.9 0.485382L32768.2 339.992L32428.7 696.23L32072.4 356.724L32411.9 0.485382ZM31053.9 1425.45L31410.1 1764.96L31070.6 2121.19L30714.4 1781.69L31053.9 1425.45ZM29695.9 2850.41L30052.1 3189.92L29712.6 3546.16L29356.4 3206.65L29695.9 2850.41ZM28337.9 4275.37L28694.1 4614.88L28354.6 4971.12L27998.4 4631.61L28337.9 4275.37ZM26979.8 5700.33L27336.1 6039.84L26996.6 6396.08L26640.3 6056.57L26979.8 5700.33ZM25621.8 7125.29L25978 7464.8L25638.5 7821.04L25282.3 7481.53L25621.8 7125.29ZM24263.8 8550.25L24620 8889.76L24280.5 9245.99L23924.3 8906.49L24263.8 8550.25ZM22905.8 9975.21L23262 10314.7L22922.5 10671L22566.3 10331.4L22905.8 9975.21ZM21547.7 11400.2L21904 11739.7L21564.5 12095.9L21208.2 11756.4L21547.7 11400.2ZM20189.7 12825.1L20545.9 13164.6L20206.4 13520.9L19850.2 13181.4L20189.7 12825.1ZM18924.1 26503.4C18937 26419.8 19015.3 26362.6 19098.9 26375.5C19182.5 26388.4 19239.8 26466.7 19226.9 26550.3C19184.4 26820.4 19108.5 27083 19001.6 27333C18894.1 27584.5 18755.4 27823.8 18588.2 28045.9C18559.5 28084 18526.2 28125.7 18488.9 28170.7C18455.6 28210.7 18421.2 28250.2 18385.8 28289.4C18329.1 28352.1 18232.2 28357 18169.5 28300.2C18106.8 28243.5 18102 28146.7 18158.7 28084C18190.7 28048.6 18222.2 28012.3 18253.4 27974.8C18280.5 27942.2 18310.2 27904.5 18343.1 27860.9C18495.7 27658.2 18621.9 27440.7 18719.3 27212.8C18816.8 26984.6 18885.8 26746.6 18924.1 26503.4ZM17494.2 28665.6C17564.2 28617.8 17659.7 28635.9 17707.5 28705.8C17755.2 28775.8 17737.2 28871.3 17667.2 28919.1C17551.9 28997.7 17431.2 29071.3 17305.7 29139.3C17180.7 29207.1 17052.3 29268.7 16921.1 29323.8C16842.8 29356.6 16752.7 29319.8 16719.9 29241.5C16687 29163.2 16723.9 29073.1 16802.2 29040.3C16927.3 28987.7 17046.8 28930.5 17160.4 28869C17276.2 28806.2 17387.6 28738.2 17494.2 28665.6ZM17103.2 20566.2C17226 20490.5 17329.7 20387.2 17405.6 20264.8C17492.8 20124.1 17543.2 19957 17543.2 19777.1C17543.2 19634.9 17511.8 19501.1 17455.7 19382.2C17408.4 19281.9 17343.9 19191.8 17266.3 19115.5C17064.9 19171.3 16852.8 19201.2 16633.7 19201.2C16405.3 19201.2 16184.5 19168.8 15975.6 19108.3C15889.5 19191 15819 19291.5 15769.3 19404.4C15719.4 19517.8 15691.7 19643.9 15691.7 19777.1C15691.7 19951.8 15739.2 20114.3 15821.9 20252.4C15901.9 20386 16014.3 20497.7 16148.1 20576.4C16310.9 20498.4 16470.7 20455.2 16624.6 20452.9C16779.2 20450.7 16939.6 20490.5 17103.2 20566.2ZM18318.1 22522.9C17729.9 21605.5 17101.7 20936.3 16630.4 20943.1C16150.6 20950.1 15515.7 21629.7 14924.2 22554.2C14213.9 23664.4 13596.2 25108.8 13370.1 26213.9C13325.4 26432.4 13304.1 26651 13304.1 26867.4C13304.1 27636.4 13583.3 28346.2 14050.8 28901.8C14520.1 29459.6 15179 29863.5 15936 30018.4C16156.2 30063.4 16387.4 30087.1 16627.5 30087.1C16871.6 30087.1 17106.6 30062.7 17330.4 30016.3C18085 29860 18740.5 29455.5 19207.5 28897.5C19672.7 28341.6 19949.9 27632.7 19949.9 26865C19949.9 26644.4 19927.7 26421.2 19881.4 26197.7C19651.3 25086.9 19029.9 23633.3 18318.1 22522.9ZM17955.8 15517.2C17617.5 15178.8 17150 14969.6 16633.7 14969.6C16117.3 14969.6 15649.9 15178.8 15311.5 15517.2C14973.2 15855.5 14763.9 16323 14763.9 16839.3C14763.9 17355.7 14973.2 17823.1 15311.5 18161.5C15649.9 18499.8 16117.3 18709.1 16633.7 18709.1C17150 18709.1 17617.5 18499.8 17955.8 18161.5C18294.2 17823.1 18503.4 17355.7 18503.4 16839.3C18503.4 16323 18294.2 15855.5 17955.8 15517.2Z" fill="white"/>
</svg>
