<svg width="76" height="72" viewBox="0 0 76 72" fill="none" xmlns="http://www.w3.org/2000/svg">
<path d="M24.4996 66.6601C11.1516 66.6601 0.308594 55.8161 0.308594 42.4691C0.308594 29.1221 11.1526 18.2781 24.4996 18.2781C31.0699 18.2781 37.2336 20.8836 41.8116 25.5828C42.1788 25.9695 42.1788 26.5789 41.7921 26.9461C41.4053 27.3133 40.796 27.3133 40.4288 26.9265C36.1983 22.5945 30.5421 20.2117 24.4988 20.2117C12.2288 20.2117 2.24076 30.2 2.24076 42.4697C2.24076 54.7394 12.2291 64.7277 24.4988 64.7277C27.9988 64.7277 31.3347 63.9348 34.4285 62.3879C34.8972 62.1458 35.4871 62.3489 35.7293 62.8137C35.9715 63.2825 35.7683 63.8723 35.3035 64.1145C31.9246 65.802 28.3035 66.6575 24.4985 66.6575L24.4996 66.6601ZM38.4766 61.9804C38.1914 61.9804 37.8868 61.8398 37.7032 61.5937C37.3789 61.1679 37.461 60.5546 37.8867 60.2304C43.5234 55.9765 46.7578 49.5074 46.7578 42.4494C46.7578 38.0158 45.457 33.7424 42.9922 30.0784C42.6876 29.6291 42.8087 29.0393 43.2579 28.7346C43.7071 28.4299 44.297 28.551 44.6017 29.0002C47.2658 32.9885 48.6915 37.6252 48.6915 42.4492C48.6915 50.1211 45.172 57.1602 39.047 61.7772C38.8829 61.9178 38.6797 61.9804 38.4766 61.9804Z" fill="white"/>
<path d="M24.4994 62.5311C13.4334 62.5311 4.44043 53.5194 4.44043 42.4721C4.44043 31.4248 13.4521 22.4131 24.4994 22.4131C29.6049 22.4131 34.4486 24.3272 38.1904 27.8037C38.5771 28.1709 38.5967 28.7802 38.2295 29.167C37.8623 29.5537 37.2529 29.5732 36.8662 29.2061C33.4873 26.0733 29.1162 24.3428 24.4952 24.3428C14.4832 24.3428 6.36619 32.4794 6.36619 42.4717C6.36619 52.46 14.5029 60.6007 24.4952 60.6007C27.0382 60.6007 29.4991 60.0929 31.7999 59.0735C32.2882 58.8508 32.8585 59.0735 33.0811 59.5617C33.3038 60.05 33.0811 60.6203 32.5928 60.8429C30.0303 61.9601 27.3037 62.5304 24.4951 62.5304L24.4994 62.5311ZM35.7694 58.8475C35.4647 58.8475 35.1796 58.7069 34.996 58.4608C34.6913 58.035 34.7733 57.4217 35.1991 57.117C39.8593 53.699 42.6249 48.2264 42.6249 42.469C42.6249 38.7659 41.5077 35.2073 39.4101 32.176C39.1054 31.7267 39.207 31.1369 39.6523 30.8322C40.1015 30.5275 40.6914 30.629 40.9961 31.0744C43.3164 34.4299 44.5352 38.3791 44.5352 42.4694C44.5352 48.8366 41.4649 54.8994 36.3164 58.6644C36.1758 58.7854 35.9687 58.8479 35.7656 58.8479L35.7694 58.8475Z" fill="white"/>
<path d="M51.4996 71.2189C38.1516 71.2189 27.3086 60.3749 27.3086 47.0279C27.3086 33.6809 38.1526 22.8369 51.4996 22.8369C64.8466 22.8369 75.6906 33.6809 75.6906 47.0279C75.6906 60.3749 64.8466 71.2189 51.4996 71.2189ZM51.4996 24.7929C39.2296 24.7929 29.2416 34.7812 29.2416 47.0509C29.2416 59.3206 39.2299 69.3089 51.4996 69.3089C63.7693 69.3089 73.7576 59.3206 73.7576 47.0509C73.7576 34.7812 63.7693 24.7929 51.4996 24.7929Z" fill="white"/>
<path d="M51.4994 67.109C40.4334 67.109 31.4404 58.0973 31.4404 47.05C31.4404 36.0027 40.4521 26.991 51.4994 26.991C62.5467 26.991 71.5584 36.0027 71.5584 47.05C71.5584 58.0973 62.5662 67.109 51.4994 67.109ZM51.4994 28.902C41.4874 28.902 33.3704 37.0387 33.3704 47.031C33.3704 57.0193 41.5071 65.16 51.4994 65.16C61.4877 65.16 69.6284 57.0233 69.6284 47.031C69.6284 37.0427 61.5112 28.902 51.4994 28.902Z" fill="white"/>
<path d="M24.4997 20.211C24.152 20.211 23.8473 20.0275 23.6637 19.7423L16.4606 7.80129C16.238 7.41457 16.2966 6.92629 16.6013 6.62159L19.3474 3.87549C19.5309 3.6919 19.7731 3.59033 20.0388 3.59033H28.9685C29.2341 3.59033 29.4763 3.69189 29.6599 3.87549L32.406 6.62159C32.7107 6.92628 32.7732 7.41456 32.5466 7.80129L25.3435 19.7423C25.1404 20.0275 24.8357 20.211 24.488 20.211H24.4997ZM18.5192 7.43404L24.4997 17.3637L30.4802 7.43404L28.5466 5.50044H20.4294L18.5153 7.43404H18.5192Z" fill="white"/>
<path d="M51.4997 24.7889C51.152 24.7889 50.8473 24.6053 50.6637 24.3202L43.4606 12.3792C43.238 11.9925 43.2966 11.5042 43.6013 11.1995L46.3474 8.45337C46.5309 8.26978 46.7731 8.16821 47.0388 8.16821H55.9685C56.2341 8.16821 56.4763 8.26977 56.6599 8.45337L59.406 11.1995C59.7107 11.5042 59.7732 11.9924 59.5466 12.3792L52.3435 24.3202C52.1404 24.6053 51.8357 24.7889 51.488 24.7889H51.4997ZM45.5192 12.0119L51.4997 21.9416L57.4802 12.0119L55.5466 10.0783H47.4294L45.5153 12.0119H45.5192Z" fill="white"/>
<path d="M39.9014 6.05101C39.374 6.05101 38.9248 5.62523 38.9248 5.07445V1.75805C38.9248 1.23071 39.3506 0.781494 39.9014 0.781494C40.4521 0.781494 40.8779 1.20727 40.8779 1.75805V5.07445C40.8779 5.62523 40.4521 6.05101 39.9014 6.05101Z" fill="white"/>
<path d="M39.9014 12.5229C39.374 12.5229 38.9248 12.0972 38.9248 11.5464V8.22998C38.9248 7.70264 39.3506 7.25342 39.9014 7.25342C40.4521 7.25342 40.8779 7.6792 40.8779 8.22998V11.5464C40.8779 12.0972 40.4521 12.5229 39.9014 12.5229Z" fill="white"/>
<path d="M44.8047 7.64111H41.4883C40.9609 7.64111 40.5117 7.21533 40.5117 6.66455C40.5117 6.11377 40.9375 5.68799 41.4883 5.68799H44.8047C45.332 5.68799 45.7812 6.11377 45.7812 6.66455C45.7812 7.21533 45.332 7.64111 44.8047 7.64111Z" fill="white"/>
<path d="M38.3359 7.64111H35.0195C34.4922 7.64111 34.043 7.21533 34.043 6.66455C34.043 6.11377 34.4687 5.68799 35.0195 5.68799H38.3359C38.8633 5.68799 39.3125 6.11377 39.3125 6.66455C39.3125 7.21533 38.8633 7.64111 38.3359 7.64111Z" fill="white"/>
<path d="M8.85449 13.5591C8.32715 13.5591 7.87793 13.1333 7.87793 12.5825V9.26611C7.87793 8.73877 8.30371 8.28955 8.85449 8.28955C9.40527 8.28955 9.83105 8.71533 9.83105 9.26611V12.5825C9.81152 13.1098 9.38183 13.5591 8.85449 13.5591Z" fill="white"/>
<path d="M8.85449 20.008C8.32715 20.008 7.87793 19.5823 7.87793 19.0315V15.7151C7.87793 15.1877 8.30371 14.7385 8.85449 14.7385C9.40527 14.7385 9.83105 15.1643 9.83105 15.7151V19.0315C9.81152 19.5823 9.38183 20.008 8.85449 20.008Z" fill="white"/>
<path d="M13.7373 15.125H10.4209C9.89356 15.125 9.44434 14.6992 9.44434 14.1484C9.44434 13.5977 9.87012 13.1719 10.4209 13.1719H13.7373C14.2646 13.1719 14.7139 13.5977 14.7139 14.1484C14.7139 14.6992 14.2881 15.125 13.7373 15.125Z" fill="white"/>
<path d="M7.28905 15.125H3.97265C3.44531 15.125 2.99609 14.6992 2.99609 14.1484C2.99609 13.5977 3.42187 13.1719 3.97265 13.1719H7.28905C7.81639 13.1719 8.26561 13.5977 8.26561 14.1484C8.26561 14.6992 7.81639 15.125 7.28905 15.125Z" fill="white"/>
</svg>
